<svg id="instagram" xmlns="http://www.w3.org/2000/svg" xmlns:xlink="http://www.w3.org/1999/xlink" width="24" height="24" viewBox="0 0 24 24">
  <defs>
    <clipPath id="clip-path">
      <rect id="Rectangle_811" data-name="Rectangle 811" width="24" height="24"/>
    </clipPath>
    <style>#instagram-2{fill:#858585;}</style>
  </defs>
  <g id="instagram-2" data-name="instagram" clip-path="url(#clip-path)">
    <path id="Path_3077" data-name="Path 3077" d="M19.2,0H4.8A4.8,4.8,0,0,0,0,4.8V19.2A4.8,4.8,0,0,0,4.8,24H19.2A4.8,4.8,0,0,0,24,19.2V4.8A4.8,4.8,0,0,0,19.2,0m3.3,19.2a3.3,3.3,0,0,1-3.3,3.3H4.8a3.3,3.3,0,0,1-3.3-3.3V4.8A3.3,3.3,0,0,1,4.8,1.5H19.2a3.3,3.3,0,0,1,3.3,3.3Z"/>
    <path id="Path_3078" data-name="Path 3078" d="M106,100a6,6,0,1,0,6,6,6.007,6.007,0,0,0-6-6m3.18,9.18A4.5,4.5,0,1,1,110.5,106a4.478,4.478,0,0,1-1.32,3.18" transform="translate(-94 -94)"/>
    <path id="Path_3079" data-name="Path 3079" d="M294.765,92.5a1.2,1.2,0,1,0,1.2,1.2,1.2,1.2,0,0,0-1.2-1.2" transform="translate(-275.951 -86.95)"/>
  </g>
</svg>
